<svg id="Layer_1" data-name="Layer 1" xmlns="http://www.w3.org/2000/svg" width="174.86" height="172.42" viewBox="0 0 174.86 172.42"><defs><style>.cls-1{fill:#fff;stroke:#000;stroke-miterlimit:10;}.cls-2{fill:#863636;}</style></defs><title>k-logo-small</title><path class="cls-1" d="M23.5,104.5" transform="translate(-8.51 -3.07)"/><path class="cls-2" d="M36,11.38a41.36,41.36,0,0,1,2.69,10.47c.51,3.54.85,7.08,1.06,10.61a199,199,0,0,1,0,21.13,182.3,182.3,0,0,1-2.33,20.89c-1.2,6.91-2.55,13.78-3.8,20.66s-2.63,13.74-4.07,20.59-3.13,13.64-4.89,20.42-3.77,13.5-6.06,20.14c-.59,1.66-1.15,3.32-1.8,5l-1,2.46-1.05,2.43a39.66,39.66,0,0,1-5.33,9.19.5.5,0,0,1-.8-.6v0a38.37,38.37,0,0,0,4.14-9.34l.8-2.45.71-2.49c.49-1.65.89-3.33,1.32-5,1.65-6.71,3-13.51,4.14-20.33s2.29-13.66,3.23-20.52,1.9-13.72,2.71-20.6S27,80.17,27.53,73.27s1.26-13.76,2.2-20.6S31.67,39,32.67,32.16c.47-3.41,1-6.83,1.44-10.25A78.5,78.5,0,0,0,35,11.62v0a.51.51,0,0,1,1-.2Z" transform="translate(-8.51 -3.07)"/><path class="cls-2" d="M95.91,3.78c-2.13,4.78-4.55,9.37-7.1,13.89s-5.27,8.93-8.12,13.25-5.81,8.58-8.92,12.72S65.44,51.86,62,55.71s-7.2,7.5-11,11.08-7.6,7.1-11.43,10.59c-.94.89-2,1.67-3,2.51a27.59,27.59,0,0,0-2.7,2.78c-1.68,2-3.28,4-5.06,5.91l-2.58,2.84A27.37,27.37,0,0,0,24,94.12a1.65,1.65,0,0,0-.23.43s0,0,.06-.08a1.61,1.61,0,0,0,.08-.69,2.15,2.15,0,0,0-.16-.64,2.3,2.3,0,0,0-1.25-1.24c-.24-.09-.08-.06.1-.09.85-.09,2.24-.35,3.54-.55a30.51,30.51,0,0,1,17.17,1.86,36.12,36.12,0,0,1,13.59,11,56.41,56.41,0,0,1,4.67,7c1.33,2.31,2.61,4.68,3.77,7.1a97.84,97.84,0,0,1,5.78,15c1.53,5.09,2.6,10.21,4,14.71a26.72,26.72,0,0,0,6.46,11.52c.39.41.81.8,1.22,1.21s.88.8,1.33,1.18c.91.76,1.83,1.51,2.8,2.2a38.07,38.07,0,0,0,6.17,3.66,35.45,35.45,0,0,0,6.89,2.42,29.54,29.54,0,0,0,7.4.9h.06a.5.5,0,0,1,.17,1,29.63,29.63,0,0,1-16.1.33,38.09,38.09,0,0,1-7.81-2.79,40,40,0,0,1-3.66-2c-.6-.36-1.17-.75-1.76-1.13s-1.17-.81-1.74-1.26a30.15,30.15,0,0,1-6.14-6.34,38.13,38.13,0,0,1-4.16-7.63c-2.11-5.18-3.47-10.08-5.12-14.77s-3.38-9.24-5.38-13.73c-1-2.23-2-4.47-3.19-6.67a52.31,52.31,0,0,0-3.48-6.11,27.42,27.42,0,0,0-9.46-9.05,22.71,22.71,0,0,0-6-2.27A31.74,31.74,0,0,0,26.69,98l-1.91,0c-.67,0-1.35,0-2.24,0a7,7,0,0,1-1.81-.32,4,4,0,0,1-1.62-1,3.63,3.63,0,0,1-.74-1.1,3.7,3.7,0,0,1-.28-1.1,4,4,0,0,1,.19-1.64,5,5,0,0,1,.44-1,7.8,7.8,0,0,1,.85-1.16,32.11,32.11,0,0,1,3.06-2.91l3-2.52c1.94-1.69,4-3.19,6-4.85a23.1,23.1,0,0,0,2.75-2.68c.81-1,1.56-2.06,2.4-3,3.31-3.92,6.45-8,9.48-12.1s6-8.31,9.05-12.39,6.24-8.07,9.48-12,6.47-7.91,9.75-11.84,6.61-7.85,10-11.72S91.4,6.92,95.09,3.22a.51.51,0,0,1,.83.57Z" transform="translate(-8.51 -3.07)"/><path class="cls-1" d="M180.5,104.5" transform="translate(-8.51 -3.07)"/><path class="cls-2" d="M165.75,70.93a10.13,10.13,0,0,1,.66,2.56c.13.87.21,1.73.25,2.6a50,50,0,0,1,0,5.17,74.28,74.28,0,0,1-1.5,10.18c-.64,3.37-1.34,6.72-2.2,10-.45,1.66-.92,3.31-1.49,4.93a16.3,16.3,0,0,1-2.24,4.66.12.12,0,0,1-.2-.14h0a9.4,9.4,0,0,0,1-2.29c.27-.8.49-1.62.69-2.44.4-1.64.72-3.31,1-5,.61-3.34,1.07-6.7,1.45-10.07s.51-6.77,1-10.11l.72-5a47.81,47.81,0,0,0,.57-5h0a.12.12,0,0,1,.24,0Z" transform="translate(-8.51 -3.07)"/><path class="cls-2" d="M180.42,69.07a49.6,49.6,0,0,1-3.73,6.64,52.18,52.18,0,0,1-4.59,6.07c-1.72,1.88-3.61,3.6-5.49,5.31a10.56,10.56,0,0,0-1.39,1.3c-.41.48-.81,1-1.24,1.45a16.27,16.27,0,0,0-1.17,1.36c-.07.06-.06.26,0-.08a.56.56,0,0,0-.35-.46c-.06,0,0,0,0,0l.87-.13a7.41,7.41,0,0,1,4.2.46,8.76,8.76,0,0,1,3.33,2.69A13,13,0,0,1,172,95.35c.32.57.65,1.14.92,1.74a25.08,25.08,0,0,1,1.42,3.67c.37,1.25.64,2.5,1,3.61a6.55,6.55,0,0,0,1.59,2.82,9,9,0,0,0,6.32,2.84h0a.12.12,0,0,1,0,.24,8.63,8.63,0,0,1-7.61-1.69,8,8,0,0,1-2.52-3.42c-.52-1.26-.86-2.46-1.26-3.61s-.81-2.27-1.32-3.36A23.06,23.06,0,0,0,169,95.05a6.8,6.8,0,0,0-2.31-2.22,6.26,6.26,0,0,0-3.17-.7c-.31,0-.59,0-1,0a1.7,1.7,0,0,1-.44-.08,1,1,0,0,1-.4-.25.89.89,0,0,1-.25-.54,1.09,1.09,0,0,1,0-.4,1.63,1.63,0,0,1,.11-.24,2,2,0,0,1,.21-.28A16.47,16.47,0,0,1,163.2,89l1.47-1.19a8.18,8.18,0,0,0,1.26-1.4c1.62-1.92,3-4,4.54-6s3.11-3.91,4.71-5.84,3.24-3.85,5-5.67a.12.12,0,0,1,.2.14Z" transform="translate(-8.51 -3.07)"/></svg>