<svg id="Layer_1" data-name="Layer 1" xmlns="http://www.w3.org/2000/svg" width="28" height="45" viewBox="0 0 28 45"><defs><style>.cls-1{fill:#863636;}</style></defs><title>k-logo-nav</title><path class="cls-1" d="M8.75,3.43A10.13,10.13,0,0,1,9.41,6c.13.87.21,1.73.25,2.6a50,50,0,0,1,0,5.17,74.28,74.28,0,0,1-1.5,10.18C7.52,27.31,6.81,30.66,6,34c-.45,1.66-.92,3.31-1.49,4.93a16.3,16.3,0,0,1-2.24,4.66.12.12,0,0,1-.2-.14H2a9.4,9.4,0,0,0,1-2.29c.27-.8.49-1.62.69-2.44.4-1.64.72-3.31,1-5,.61-3.34,1.07-6.7,1.45-10.07s.51-6.77,1-10.11l.72-5a47.81,47.81,0,0,0,.57-5h0a.12.12,0,0,1,.24,0Z"/><path class="cls-1" d="M23.42,1.57a49.6,49.6,0,0,1-3.73,6.64,52.18,52.18,0,0,1-4.59,6.07c-1.72,1.88-3.61,3.6-5.49,5.31a10.56,10.56,0,0,0-1.39,1.3c-.41.48-.81,1-1.24,1.45a16.27,16.27,0,0,0-1.17,1.36c-.07.06-.06.26,0-.08a.56.56,0,0,0-.35-.46c-.06,0,0,0,0,0L6.34,23a7.41,7.41,0,0,1,4.2.46,8.76,8.76,0,0,1,3.33,2.69A13,13,0,0,1,15,27.85c.32.57.65,1.14.92,1.74a25.08,25.08,0,0,1,1.42,3.67c.37,1.25.64,2.5,1,3.61a6.55,6.55,0,0,0,1.59,2.82,9,9,0,0,0,6.32,2.84h0a.12.12,0,0,1,0,.24,8.63,8.63,0,0,1-7.61-1.69,8,8,0,0,1-2.52-3.42C15.65,36.4,15.3,35.2,14.9,34s-.81-2.27-1.32-3.36A23.06,23.06,0,0,0,12,27.55a6.8,6.8,0,0,0-2.31-2.22,6.26,6.26,0,0,0-3.17-.7c-.31,0-.59,0-1,0A1.7,1.7,0,0,1,5,24.56a1,1,0,0,1-.4-.25.89.89,0,0,1-.25-.54,1.09,1.09,0,0,1,0-.4,1.63,1.63,0,0,1,.11-.24,2,2,0,0,1,.21-.28A16.47,16.47,0,0,1,6.2,21.52l1.47-1.19a8.18,8.18,0,0,0,1.26-1.4c1.62-1.92,3-4,4.54-6S16.58,9,18.19,7.1s3.24-3.85,5-5.67a.12.12,0,0,1,.2.14Z"/></svg>